<svg xmlns="http://www.w3.org/2000/svg" xmlns:xlink="http://www.w3.org/1999/xlink" width="48" height="48" viewBox="0 0 960 960"><path d="M370,736h60V416H370Zm160,0h60V416H530ZM480,976q-82,0-155-31.5t-127.5-86Q143,804,111.5,731T80,576q0-83,31.5-156t86-127Q252,239,325,207.5T480,176q83,0,156,31.5T763,293q54,54,85.5,127T880,576q0,82-31.5,155T763,858.5q-54,54.5-127,86T480,976Zm0-60q142,0,241-99.5T820,576q0-142-99-241T480,236q-141,0-240.5,99T140,576q0,141,99.5,240.5T480,916ZM480,576Z" transform="translate(1056 0) rotate(90)" fill="#fca311"/></svg>
