<?xml version="1.0" standalone="no"?>
<!DOCTYPE svg PUBLIC "-//W3C//DTD SVG 20010904//EN"
 "http://www.w3.org/TR/2001/REC-SVG-20010904/DTD/svg10.dtd">
<svg version="1.0" xmlns="http://www.w3.org/2000/svg"
 width="96.000000pt" height="96.000000pt" viewBox="0 0 96.000000 96.000000"
 preserveAspectRatio="xMidYMid meet">
<metadata>
Created by potrace 1.14, written by Peter Selinger 2001-2017
</metadata>
<g transform="translate(0.000000,96.000000) scale(0.100000,-0.100000)"
fill="#000000" stroke="none">
<path d="M196 938 c-14 -8 -16 -55 -16 -458 0 -472 -1 -462 45 -466 42 -3 63
13 60 45 l-3 31 198 0 197 0 -3 -30 c-3 -24 1 -32 19 -39 25 -10 57 -8 75 3 9
5 12 111 12 454 0 246 -4 452 -8 458 -7 12 -78 11 -90 -1 -4 -4 -7 -25 -7 -48
l0 -42 -192 -3 c-106 -1 -193 1 -194 5 0 5 -2 25 -3 45 -1 20 -5 40 -10 45
-11 11 -61 12 -80 1z m475 -223 c4 -46 5 -81 2 -90 -3 -8 -319 -13 -378 -6 -7
1 -13 103 -6 107 1 0 87 1 191 2 161 1 190 -1 191 -13z m0 -185 c5 -24 3 -117
-2 -125 -8 -11 -357 -14 -374 -3 -9 5 -11 47 -6 116 1 16 17 17 191 17 105 0
190 -2 191 -5z m0 -220 c3 -18 5 -117 2 -125 -5 -15 -372 -12 -382 3 -6 10 -7
54 -2 117 1 10 380 15 382 5z"/>
</g>
</svg>
