<svg xmlns="http://www.w3.org/2000/svg" xmlns:xlink="http://www.w3.org/1999/xlink" width="200" height="200" viewBox="0 0 200 200">
  <defs>
    <filter id="Tracé_62" x="32.88" y="24.734" width="134.09" height="152.539" filterUnits="userSpaceOnUse">
      <feOffset dy="1" input="SourceAlpha"/>
      <feGaussianBlur stdDeviation="0.5" result="blur"/>
      <feFlood flood-color="#12110f"/>
      <feComposite operator="in" in2="blur"/>
      <feComposite in="SourceGraphic"/>
    </filter>
    <clipPath id="clip-Lunaires_d_Aether_-_emoji">
      <rect width="200" height="200"/>
    </clipPath>
  </defs>
  <g id="Lunaires_d_Aether_-_emoji" data-name="Lunaires d&apos;Aether - emoji" clip-path="url(#clip-Lunaires_d_Aether_-_emoji)">
    <circle id="Ellipse_1" data-name="Ellipse 1" cx="100" cy="100" r="100" fill="#b85209"/>
    <g id="Groupe_3" data-name="Groupe 3" transform="translate(-7.521 -8.573)">
      <path id="Tracé_63" data-name="Tracé 63" d="M290.75,958.732c-6.891-22.782,7.644-28.446,11.344-32.765s12.438-15.029,12.438-15.029,18.542-14.05,25.28-15.777,23.574-1.677,31.038.576c12.1,3.651,10.538,7.2,13.3,18.657a50.311,50.311,0,0,1,10.941,14.454l3.046,4.382s8.432,3.511,8.833,6.662a16.4,16.4,0,0,0,2.845,6.513c1.007,1.456,2.68,2.672,2.919,5.614-.225,3.518-2.919,6.812-2.919,6.812s-1.553,5.5-4.042,8.085a8.824,8.824,0,0,1-5.914,2.545s-6.065,5.624-6.668,6.6c.411,1.292-.434,4.883-.633,9.328a18.966,18.966,0,0,0,.633,6.45c1.434,3.952,7.3,3.481,10.86,8.683s3.893,12.352,3.893,12.352-13.075,32.635-16.282,26.006c-.263-.543-22.96,11.238-48.444-.484-4.1-2.057-42.39-36.891-46.343-38.443-3.512-1.377-11.194,3.344-11.194,3.344-2.277-3.538,2.355-4.825,9.617-9.041,5.522-3.206,7.587-2.793,9.962-7.947s-1.44-11.977-1.44-11.977S292.976,966.09,290.75,958.732Z" transform="translate(-239.626 -860)" fill="#12110f"/>
      <g transform="matrix(1, 0, 0, 1, 7.52, 8.57)" filter="url(#Tracé_62)">
        <path id="Tracé_62-2" data-name="Tracé 62" d="M-160.873-711.557c-8.576-1.375-13.841-4.113-21.732-9.358a64.793,64.793,0,0,1-14.539-13.249l-.01-.011q-.5-.588-.962-1.125c-.413-.479-.823-.957-1.235-1.436a136.8,136.8,0,0,0-9.449-10.191,34.866,34.866,0,0,0-7.089-5.673c-.739-.469-1.573-1-2.631-1.7a53.4,53.4,0,0,0-8.548-4.632s0-.006.012-.008a8.169,8.169,0,0,1,3.037-.486c2.38,0,6.317.71,11.562,4.1l.466.3A91.214,91.214,0,0,1-199-745.286c2.651,2.355,4.426,4.2,6.144,5.978a91.065,91.065,0,0,0,7.674,7.275c1.3,1.1,2.277,1.95,3.065,2.635,3.163,2.76,3.422,2.984,9.831,6.246,8.148,4.146,11.147,4.431,18.619,4.649l1.065.031c1.688.05,3.145.092,4.444.092,3.7,0,6.432-.319,12-2.134,8.543-2.785,11.657-8.472,12.408-10.149.632-1.413,1.13-5.189,1.237-9.395.115-4.532-.235-8.131-.939-9.628a26.785,26.785,0,0,0-4.869-6.5,2.949,2.949,0,0,1,2.714-2.155c.026,0,.053,0,.079,0,2.243,0,4.766,1.589,7.5,4.721,2.893,3.315,3.272,5.711,3.939,12.155a23.854,23.854,0,0,1-.674,9.166,32.729,32.729,0,0,1-4.912,9.782c-2.712,3.888-7.038,6.5-10.188,8a33.745,33.745,0,0,1-9.031,2.962,103.153,103.153,0,0,1-11.881.7A64.989,64.989,0,0,1-160.873-711.557Zm-5.108-6.651a2.307,2.307,0,0,0-.65,1.668,3.017,3.017,0,0,0,2.715,2.686.477.477,0,0,0,.049,0,2.263,2.263,0,0,0,1.6-.743,2.758,2.758,0,0,0,.805-1.945,2.852,2.852,0,0,0-2.8-2.373c-.021,0-.043,0-.064,0A2.3,2.3,0,0,0-165.981-718.209Zm30.761-1.085a2.3,2.3,0,0,0-.649,1.667,3.021,3.021,0,0,0,2.715,2.687.463.463,0,0,0,.048,0,2.259,2.259,0,0,0,1.6-.744,2.753,2.753,0,0,0,.807-1.945A2.854,2.854,0,0,0-133.5-720c-.021,0-.043,0-.064,0A2.293,2.293,0,0,0-135.22-719.294Zm-61.865-19.041a2.3,2.3,0,0,0-.65,1.667,3.017,3.017,0,0,0,2.715,2.687c.016,0,.033,0,.049,0a2.253,2.253,0,0,0,1.6-.743,2.753,2.753,0,0,0,.807-1.946,2.855,2.855,0,0,0-2.8-2.373c-.021,0-.041,0-.061,0A2.294,2.294,0,0,0-197.086-738.335Zm77.275-4.947a2.307,2.307,0,0,0-.65,1.668,3.02,3.02,0,0,0,2.715,2.687.463.463,0,0,0,.048,0,2.262,2.262,0,0,0,1.606-.744,2.752,2.752,0,0,0,.807-1.945,2.859,2.859,0,0,0-2.8-2.373c-.021,0-.043,0-.064,0A2.3,2.3,0,0,0-119.81-743.281Zm-45.448,26.8c0-.771.492-1.018,1.263-1.079s1.08.894,1.08.894.2,1.387-.894,1.387S-165.258-715.714-165.258-716.486Zm-30.171-10.921c-8.729-7.5-10.9-11.539-18.1-17.536s-10.157-8.219-14.394-8.985-6.271,1.466-9.1,5.243-2.23,9.865-2.23,9.865-1.831-6.1.26-10.534,5.166-7.285,7.99-7.359,6.047-1.182,15.914,6.6c5.536,4.364,9.643,9.447,14.252,14.494,2.938,3.214,6.057,6.7,9.9,10.388,9.953,7.827,11.548,9.133,11.548,9.133A94.174,94.174,0,0,1-195.429-727.407Zm60.922,9.833c0-.8.51-1.051,1.306-1.115s1.115.924,1.115.924.2,1.433-.924,1.433S-134.507-716.778-134.507-717.575Zm-38.553-8.115c-11.916-6.635-24.314-21.134-24.314-21.134s-.041-.683,2.193.7c2.521,1.568,7.194,7.585,15.721,13.157s9.506,6.847,18.382,9.13,19.232,1.225,23.151,0a17.054,17.054,0,0,0,11.471-11.657c1.839-6.939-1.624-16.9-1.624-16.9s4.349,7.446,3.962,14.4-3.532,10.725-9.31,14.43c-2.7,1.732-9.011,3.554-16.093,3.554C-157.6-720-166.71-722.154-173.06-725.69Zm13.6.349c-7.55-.968-10.114-4.178-10.17-4.207a9.1,9.1,0,0,0,3.06-3.858,7.559,7.559,0,0,0-.344-5.976,5.855,5.855,0,0,0-5-2.944c-.125-.008-.252-.013-.374-.013-2.436,0-3.939,1.587-5.2,3.3-1.477,2.006-.41,4.8-.4,4.832a.765.765,0,0,1-.068-.051c-1.126-.906-4.033-3.29-6.679-5.9-3.158-3.111-6.712-6.994-6.748-7.031.079.039,8.421,4.24,9.266,4.24a.113.113,0,0,0,.054-.01.044.044,0,0,0,.021-.035,9.785,9.785,0,0,0-2.128-1.838c-1.583-1.214-3.549-2.725-3.326-3.13a.335.335,0,0,1,.326-.148,8.029,8.029,0,0,1,2.193.743,26.111,26.111,0,0,0,4.486,1.55,71.185,71.185,0,0,0,7.252,1.141l-.081-.023a48.077,48.077,0,0,1-5.742-2.119c-2.1-1.027-3.514-2.09-3.427-2.582.025-.138.168-.221.425-.247a1.229,1.229,0,0,1,.145-.007,34.483,34.483,0,0,1,3.476.455c2.8.436,6.628,1.032,10.359,1.238,1.331.072,2.732.11,4.169.11a101.574,101.574,0,0,0,14.065-1.026h-.012c-.026,0-.084,0-.168-.007-3.091-.161-10.292-.581-10.44-1a.047.047,0,0,1,.018-.053c.3-.268,2.044-.364,4.461-.5,2.356-.13,5.288-.293,8.262-.674a44.224,44.224,0,0,0,10.327-2.221l.023-.007c.451-.14.944-.295,1.485-.461-.708,5.334-10.491,8.349-14.669,9.636a7.368,7.368,0,0,0-1.683.6.048.048,0,0,0,0,.045c.043.066.267.1.649.1a35.187,35.187,0,0,0,10.211-2.175,31.886,31.886,0,0,0,8.606-5.174l.01.012c.461.807,4.482,8.028,3.746,13.253-.833,5.915-3.074,8.929-8.382,10.971-3.244,1.247-7.942,1.773-12.828,1.773A73.962,73.962,0,0,1-159.465-725.34Zm18.04-15.372a5.652,5.652,0,0,0-1.536,4.275,6.09,6.09,0,0,0,5.946,6.089c3.043,0,5.325-3.15,5.546-6.089a5.531,5.531,0,0,0-1.609-4.081,5.778,5.778,0,0,0-4.137-1.979A5.841,5.841,0,0,0-141.425-740.713Zm-33.15,6.279c-1.261-1.2-.79-3.675.456-5a2.989,2.989,0,0,1,2.243-1.006,4.533,4.533,0,0,1,1.932.491,3.444,3.444,0,0,1,1.457,2.506,3.6,3.6,0,0,1-.514,3.013,3.793,3.793,0,0,1-2.72.939A4.234,4.234,0,0,1-174.575-734.434Zm1.085-2.976c-1.018.79-.01,2.979,0,3l.944-.2c0-.02.048-2.307-.45-2.816a.3.3,0,0,0-.217-.1A.462.462,0,0,0-173.49-737.409Zm34.907,2.976c-1.261-1.2-2.208-3.547-1.087-4.861s3.664-.728,4.346-.4a2.991,2.991,0,0,1,1.6,2.248,3.6,3.6,0,0,1-.514,3.013,3.744,3.744,0,0,1-2.149.441A4,4,0,0,1-138.583-734.434Zm0-3.491c-1.018.792.593,1.945,1.515,2.43s2.465.128,2.172-.486c-.287-.6-3.419-1.946-3.674-1.946C-138.576-737.926-138.581-737.926-138.583-737.925Zm-57.694,1.317c0-.716.458-.945,1.172-1s1,.828,1,.828.183,1.286-.828,1.286S-196.277-735.894-196.277-736.607Zm77.1-4.988c0-.868.557-1.146,1.426-1.217s1.217,1.009,1.217,1.009.221,1.564-1.008,1.564S-119.181-740.724-119.181-741.6Zm-63.137-14.519a90.384,90.384,0,0,1-14.384-2.454s24.664.524,41.388-.655,25.506-4.059,25.506-4.059.3,3.255-.685,4.059-5.854,2.368-14.14,3.293a97.319,97.319,0,0,1-14.18.741c-1.156,0-2.462,0-4,0-.624,0-1.217.005-1.783.005A152.372,152.372,0,0,1-182.318-756.114Zm-32.742-5.225a2.717,2.717,0,0,1-1.258-3.717l9.949,4.947S-212.571-760.1-215.06-761.339Zm28.475-.856c-1.706-.175,3.98-1.219,6.7-1.156,13.638.314,19.42,1.131,31.479,0s13.32-2.053,18.221-3.534a1.642,1.642,0,0,1,0,2.23,109.076,109.076,0,0,1-20.126,3.6c-3.527.319-7.089.463-10.763.463A253.537,253.537,0,0,1-186.585-762.2Zm-6.18-3.659c-4.252-.319-8.889-9.6-2.462-11.369,11.145-3.079,13.184-18,13.184-18,1.637-.6.543,3.316,6,8.777,2.375,10.878,14.221,14.71,15.038,15.212s6.472,2.4,13.944,2.009,17.961-6.071,17.961-6.071l-.924,6.071s-6.08,2.967-21.058,3.723c-6.765.341-12.907.529-18.972.529C-177.412-764.969-184.661-765.245-192.765-765.855Zm-17.806-.487c-3.239-1.031-4.413-1.553-4.575-1.8a1.032,1.032,0,0,1,0-1.143s3.867,1.177,8.927,2.3c.422.515-.194,1.121-1.681,1.121A8.909,8.909,0,0,1-210.571-766.342Zm-2.3-5.088a5.274,5.274,0,0,1-1.334-1.6c-1.629-2.119-2.529-4.7-2.457-5.946,1.125-.328,4.548,1.377,6.692,2.549.143,2.144,2.315,6.462,2.315,6.462S-211.751-770.465-212.873-771.43Zm49.965-9.884c-4.764-4.522-5.141-12.818-5.144-12.9a5.231,5.231,0,0,0,4.655-4.9,4.083,4.083,0,0,0-.925-3.1,6.076,6.076,0,0,0-3.73-1.721.036.036,0,0,1,0-.02,33.6,33.6,0,0,1,1.579-6.536c1.158-3.321,3.366-7.913,7.321-10.916,5.416-4.117,9.9-6.669,15.53-6.669a24.7,24.7,0,0,1,6.19.869,21.961,21.961,0,0,1,10.2,5.586,31.416,31.416,0,0,1,6.208,9.276,23.613,23.613,0,0,1,2.133,11.84,38.959,38.959,0,0,1-3.684,13.554,23.725,23.725,0,0,1-10.2,10.564,28.4,28.4,0,0,1-12.339,3.644c-.2,0-.4.008-.594.008C-152.937-772.731-158.7-777.316-162.908-781.314Zm13.309-39.193c-7.56,2.259-11.443,11.986-11.481,12.085-.031.074-3.1,7.384-1.093,14.127,2.078,6.966,4.163,11.124,9.227,13.144.527.211,1.029.417,1.515.616,2.757,1.13,4.929,2.022,7.57,2.022a15.744,15.744,0,0,0,4.8-.841l.555-.176c5.444-1.734,7.277-2.32,10.8-8.071,3.638-5.951,4.739-8.467,3.837-15.514-.876-6.849-1.872-11.29-8.327-15.188-3.7-2.236-6.537-3.53-10.07-3.53A25.766,25.766,0,0,0-149.6-820.507Zm-11.713,35.172a1.228,1.228,0,0,0-.949.818.972.972,0,0,0,.364,1.018,1.541,1.541,0,0,0,1,.422,1.01,1.01,0,0,0,1.029-1,1.2,1.2,0,0,0-.278-.922,1.207,1.207,0,0,0-.9-.354A1.57,1.57,0,0,0-161.313-785.335Zm36.707-4.764a.707.707,0,0,0-.5.557,1.99,1.99,0,0,0,.212,1.645,1.166,1.166,0,0,0,.762.247,1.211,1.211,0,0,0,1.238-1.075,1.142,1.142,0,0,0-.194-.973,1.485,1.485,0,0,0-1.148-.43A2.313,2.313,0,0,0-124.606-790.1Zm.372-23.614c-.239.04-.427.252-.53.594a1.814,1.814,0,0,0,.188,1.55.924.924,0,0,0,.619.186,1.194,1.194,0,0,0,1.3-.985,1.212,1.212,0,0,0-.308-.937,1.427,1.427,0,0,0-1.032-.428A1.345,1.345,0,0,0-124.233-813.713Zm-38.709-.084a.612.612,0,0,0-.463.491,1.963,1.963,0,0,0,.263,1.625,1.266,1.266,0,0,0,.809.252.937.937,0,0,0,1.049-.827,1.387,1.387,0,0,0-.377-1.051,1.57,1.57,0,0,0-1.1-.507A.914.914,0,0,0-162.943-813.8Zm-5.477,32.811a16.167,16.167,0,0,1-3.623-9.082,31.117,31.117,0,0,0,4.7,7.679,79.449,79.449,0,0,0,8.492,8.408S-164.909-776.782-168.42-780.986Zm15.9-2.053c-3.463-1.8-6.014-5.2-7.381-9.829a28.93,28.93,0,0,1-.784-12.092c1.052-6.939,7.343-13.478,14.32-14.886a12.947,12.947,0,0,1,2.543-.252c6.216,0,11.878,4.291,14.73,8.543a20.279,20.279,0,0,1,3.282,10.145,24.008,24.008,0,0,1-3.595,13.534,18.781,18.781,0,0,1-6.608,5.235,18.118,18.118,0,0,1-7.807,1.749A18.932,18.932,0,0,1-152.524-783.04Zm6.03-33.667c-6.462,1.831-10.8,8.7-10.8,17.085,0,8.36,5.566,14.135,10.8,15.326a12.555,12.555,0,0,0,2.788.319c4.575,0,8.848-2.679,12.034-7.544,3.988-6.085,2.87-11.595,1.069-16.643a14.682,14.682,0,0,0-12.988-8.94A10.648,10.648,0,0,0-146.494-816.707Zm-58.46,33.825a14.88,14.88,0,0,1,1.941-1.089,10.751,10.751,0,0,0,4.377-3.475c.659-.851,1.174-1.454,1.587-1.937a10.073,10.073,0,0,0,2.427-4.382,18.516,18.516,0,0,0,.744-7.132c0,.008-.007.025-.013.049a51.364,51.364,0,0,1-2.274,6.468c-1.322,3.035-3.43,6.765-5.964,7.3a31.065,31.065,0,0,0,5.722-18.768c-.109-5.347-1.362-8.9-5.158-14.616a24.757,24.757,0,0,0-9.857-8.216s0,0,.008,0a.1.1,0,0,1,.028,0,30.952,30.952,0,0,1,9,2.559c3.592,1.9,8.565,8.4,9.846,14.251,1.228,5.605,1.034,8.693.334,13.936-.621,4.644-2.911,8.79-7.211,13.045-3.824,3.784-7.5,3.828-7.656,3.828C-207.063-781.1-206.926-781.521-204.954-782.882Zm17.439-14.237c1.148-6.464,1.281-15.405-3.2-22.316s-6.518-9.737-17.2-12.485l5.419-2.592s-3.86-1.3-3.063-2.2,5.734-1.6,5.734-1.6L-203-839.537c1.225-1.653,8.084-5.388,8.084-5.388a32.68,32.68,0,0,0-12.411,5.388c-2.985,2.216-4.183,5.235-6.7,8.087l-3.377.731s2.08-6.572,10.081-13.309,18.611-12.359,23.217-13.811c-3.063,3.771-5.477,8.766-2.2,13.811S-171-837.654-171-837.654s15.03,1.1,23.245.629,9.594-2.562,9.594-2.562,8.457,6.585,11.5,14.491c-.69,1.578-8.543-5.49-11.866-6.215s-13.556-2.381-20.419.484-8.53,3.213-12.927,8.759-6.1,13.531-6.1,13.531l-3.262,2.9s-.967-7.611-2.477-10.631-6.282-8.828-6.282-8.828,5.8,9.989,5.981,19.459-2.072,12.64-5.256,18.425-6.992,5.887-6.992,5.887C-189.69-789.991-188.663-790.656-187.515-797.119Zm-30.657,15.468c-8.589-.879-15.433-13.663-14.679-25.122s7.725-19.159,15.2-19.976,12.469,2.953,16.205,9.673,2.826,12.039,2.323,17.526c-.972,10.6-9.488,17.969-17.686,17.969A13,13,0,0,1-218.172-781.651Zm-11.1-23.938c-.586,8.922,4.947,18.66,11.619,19.352s14.317-7.391,15.076-16.581-5.276-17.083-12.563-18.843a7.925,7.925,0,0,0-1.859-.224C-223.463-821.886-228.734-813.747-229.271-805.59Zm85.454,15.206c.571.171.629,4.117.629,4.117l-1.372.142S-144.388-790.557-143.816-790.384Zm23.191,3.829c1.671-1.932,3.6-9.031,3.753-9.551h3.791s-.822,5.787-2.786,7.99a4.983,4.983,0,0,1-3.8,1.648A4.725,4.725,0,0,1-120.626-786.555Zm-30.224-2.2s1.915-1.793,2.144-1.543-1.228,2.544-1.228,2.544Zm-65.356-.106.29-30.971h1.981l-.484,30.971Zm-9.562-6.277c-1.877-3.941-1.263-9.739-1.263-9.739h1.411A26.975,26.975,0,0,0-224.1-796.4a26.873,26.873,0,0,0,4.573,7.285S-223.891-791.2-225.768-795.138Zm71.288,1.78s1.823-1.609,1.658-1.943-2.317.608-2.317.608a12.246,12.246,0,0,1-.672-2.526v-3.227s3.16.4,3.3,0-3.173-1.373-3.173-1.373a20.174,20.174,0,0,1,2.058-6.547s2.673,1.044,2.916.716-1.945-2.029-1.945-2.029a11.6,11.6,0,0,1,2.946-3.088s.942,2.058,1.256,1.856,0-2.658,0-2.658l1.48-.85a10.489,10.489,0,0,1,3.351-.524s.344,2.917.6,2.946.687-2.771.687-2.771a15.124,15.124,0,0,1,5.652,2.426c.392.333.637.56.552.487,0,0-1.722,3-1.457,3.231s2.515-2.287,2.515-2.287c1.462,1.722,2.307,3.257,2.353,4.319l-20.533,15.219Zm19.1-.657c.458-.315,2.4,1.258,2.4,1.258l-.543.886S-135.84-793.7-135.383-794.015Zm-43.816-6.109c.869-8.891,8.214-5.121,8.214-5.121s-4.542-1.788-5.75,4.589,5.75,7.489,5.75,7.489a10.445,10.445,0,0,1-1.973.178C-175.576-792.989-179.805-793.928-179.2-800.124Zm8.467,4.031c-.953,0-3.855-.265-3.644-3.524.25-3.894,4.573-3.376,4.659-2.661s-1.806,1.075-2.021,2.661,1.306,3.514,1.306,3.514-.1.01-.263.01Zm1.457-.7a2.794,2.794,0,0,1,0-3.705,2.555,2.555,0,0,1,2.473-.669,2.554,2.554,0,0,1,1.686,2.03c.176.85-1.085,2.544-1.943,2.544-.433,0-.866.048-1.251.048A1.457,1.457,0,0,1-169.274-796.79Zm1.016-.342s.873-.185.914-.6-.972-1.056-1.11-1.056h-.012C-169.223-798.255-168.267-797.147-168.258-797.132Zm57.034-.257v-8.377c1.573-.858,1.8,1.652,1.8,3.746,0,1.841-.066,4.813-1.245,4.813A1.1,1.1,0,0,1-111.224-797.389Zm-5.388-1.281-.334-7.619s3.158-.372,3.865.706.446,6.913.446,6.913Zm-17.2-1.464c-.028-.542,3.231-.627,3.231-.627v1.085s-.184,0-.464,0C-131.932-799.671-133.788-799.719-133.811-800.134Zm-78.965-2.4v-2.342l8.079.3-.967,2.3Zm-10.8-.632v-2.342l6.067.295v2.342Zm-3.208-3.713s.59-5.217,2.847-8.36a12.53,12.53,0,0,1,6.159-4.219,31.953,31.953,0,0,0-4.8,6.089,21.545,21.545,0,0,0-2.287,6.49,1.348,1.348,0,0,1-.53.049C-225.966-806.831-226.784-806.881-226.784-806.881Zm56.428-1.214c0-.191.879-6.471,6.155-14.384-1.948.313-9.36,12.06-9.36,12.06s2.246-10.445,10.05-15.39,15.891-6.155,20.1-3.957c0,0-9.406.3-16.143,5.716-6.679,5.372-10.732,15.957-10.8,15.957Zm53-.054a78.362,78.362,0,0,0-2.605-8.685,3.289,3.289,0,0,1,3.906,1.289c1.836,2.266,2.786,7.4,2.786,7.4Zm-40.282-31.337c-3.2,0-6.121-.11-8.668-.329a51.01,51.01,0,0,1-11.894-2.268c-3.338-1.069-5.434-2.7-6.231-4.863a7.452,7.452,0,0,1,.693-5.879c.061.082,6.266,8.458,13.64,10,3.519.734,9.539.888,13.969.888,6.509,0,12.838-.334,13.162-.443a18.85,18.85,0,0,0,2.119-1.151s0,.01,0,.022c-.023.5-.186,3.01-1.154,3.211a138.983,138.983,0,0,1-15.636.814Zm-23.387-6.982a19.256,19.256,0,0,0,5.39,2.824,41.782,41.782,0,0,1-3.9-3.048,20.5,20.5,0,0,1-2.676-2.972A3.172,3.172,0,0,0-181.024-846.468Zm20.152,2.57c-8.232-.341-9.781-.734-15.076-3.832-3.31-1.935-5.512-4.413-5.89-6.626a3.4,3.4,0,0,1,.741-2.857c1.849-2.187,4.365-2.788,11.7-2.788.833,0,1.752.008,2.809.023.774.012,1.512.021,2.22.028,8.01.1,12.029.145,17.878,3.364,3.15,1.736,5.134,3.852,5.739,6.124a5.4,5.4,0,0,1-.588,4.24c-1,1.638-5.441,2.468-13.2,2.468C-156.443-843.752-158.515-843.8-160.871-843.9Zm-13.055-13.668c-4.059.145-6.244,2.544-3.865,4.784s7.425,5.652,13.424,5.749,18.753,1.07,20.686-.7-1.4-6.7-8.649-8.579a63.086,63.086,0,0,0-14.735-1.411C-169.918-857.72-172.38-857.619-173.926-857.565Zm6.035,9-5.624-6.264s1.079-1.821,2.081-.148,4.385,4.5,4.385,4.5h8.994l-3.382-4.5a4.91,4.91,0,0,1,4.163.483,55.947,55.947,0,0,0,3.448,4.611l.082.183h7.1c-.606-1.9-3.293-3.766-3.293-4.239s2.067.782,3.293,2.343a4.231,4.231,0,0,1,.995,3.032Z" transform="translate(274.69 885.43)" fill="#fca311" stroke="#12110f" stroke-width="0.4"/>
      </g>
    </g>
  </g>
</svg>
